<svg width="138" height="22" viewBox="0 0 138 22" fill="none" xmlns="http://www.w3.org/2000/svg">
<path d="M11 0L13.4697 7.60081H21.4616L14.996 12.2984L17.4656 19.8992L11 15.2016L4.53436 19.8992L7.00402 12.2984L0.538379 7.60081H8.53035L11 0Z" fill="#0066FF"/>
<path d="M40 0L42.4697 7.60081H50.4616L43.996 12.2984L46.4656 19.8992L40 15.2016L33.5344 19.8992L36.004 12.2984L29.5384 7.60081H37.5303L40 0Z" fill="#0066FF"/>
<path d="M69 0L71.4697 7.60081H79.4616L72.996 12.2984L75.4656 19.8992L69 15.2016L62.5344 19.8992L65.004 12.2984L58.5384 7.60081H66.5303L69 0Z" fill="#0066FF"/>
<path d="M98 0L100.47 7.60081H108.462L101.996 12.2984L104.466 19.8992L98 15.2016L91.5344 19.8992L94.004 12.2984L87.5384 7.60081H95.5303L98 0Z" fill="#0066FF"/>
<path d="M127 0L129.47 7.60081H137.462L130.996 12.2984L133.466 19.8992L127 15.2016L120.534 19.8992L123.004 12.2984L116.538 7.60081H124.53L127 0Z" fill="#C4C4C4"/>
</svg>
